# xmcd CD database file
#
# Track frame offsets:
#	150
#	15310
#	30849
#	48449
#	61571
#	76233
#	103255
#	126179
#	149695
#	165693
#	186041
#	202114
#
# Disc length: 2810 seconds
#
# Revision: 0
# Processed by: cddbd v1.5.2PL0 Copyright (c) Steve Scherf et al.
# Submitted via: jetAudio 7
#
DISCID=990af80c
DTITLE=Miss Tess - When Tomorrow Comes
DYEAR=1900
DGENRE=Blues
TTITLE0=Honeysuckle Rose
TTITLE1=When Tomorrow Comes
TTITLE2=Comes Love
TTITLE3=Yes Mother
TTITLE4=Sugar In My Bowl
TTITLE5=Caravan
TTITLE6=Stars Fell On Alabama
TTITLE7=A Flower Is A Lovesome Thing
TTITLE8=Lullaby Of The Leaves
TTITLE9=Mood Indigo
TTITLE10=Love Me Or Leave Me
TTITLE11=Dream A Little Dream Of Me
EXTD=
EXTT0=
EXTT1=
EXTT2=
EXTT3=
EXTT4=
EXTT5=
EXTT6=
EXTT7=
EXTT8=
EXTT9=
EXTT10=
EXTT11=
PLAYORDER=
